<?xml version="1.0" encoding="iso-8859-1"?>
<!-- Generator: Adobe Illustrator 19.0.0, SVG Export Plug-In . SVG Version: 6.00 Build 0)  -->
<svg version="1.1" id="Layer_1" xmlns="http://www.w3.org/2000/svg" xmlns:xlink="http://www.w3.org/1999/xlink" x="0px" y="0px"
	 viewBox="0 0 512 512" style="enable-background:new 0 0 512 512;" xml:space="preserve">
<path style="fill:#63C4F2;" d="M408.926,406.603L260.55,497.277c-2.794,1.707-6.308,1.707-9.102,0l-148.375-90.674
	c-2.594-1.585-4.176-4.407-4.176-7.447V203.308L256,98.572l157.103,104.736v195.848C413.103,402.197,411.52,405.018,408.926,406.603
	z"/>
<g>
	<path style="fill:#8AD9FF;" d="M256,498.558c1.578,0,3.154-0.428,4.551-1.281l148.375-90.674c2.594-1.585,4.176-4.407,4.176-7.447
		V203.308L255.999,308.044L256,498.558z"/>
	<polygon style="fill:#8AD9FF;" points="256,308.044 256,98.572 98.896,203.308 	"/>
</g>
<path style="fill:#3CAFE6;" d="M413.103,203.308l95.756,79.797c4.482,3.734,4.109,10.731-0.746,13.967l-141.955,94.636
	c-3.216,2.144-7.459,1.918-10.429-0.557L256,308.043L413.103,203.308z"/>
<g>
	<path style="fill:#1C74BB;" d="M413.103,203.308l95.756-79.797c4.482-3.734,4.109-10.731-0.746-13.967L366.158,14.907
		c-3.216-2.144-7.459-1.917-10.429,0.557L256,98.572L413.103,203.308z"/>
	<path style="fill:#1C74BB;" d="M98.896,203.308L3.141,283.105c-4.482,3.734-4.109,10.731,0.746,13.967l141.955,94.636
		c3.216,2.144,7.459,1.918,10.429-0.557L256,308.043L98.896,203.308z"/>
</g>
<path style="fill:#3CAFE6;" d="M98.896,203.308L3.141,123.512c-4.482-3.734-4.109-10.731,0.746-13.967l141.955-94.636
	c3.216-2.144,7.459-1.917,10.429,0.557L256,98.574L98.896,203.308z"/>
<g>
</g>
<g>
</g>
<g>
</g>
<g>
</g>
<g>
</g>
<g>
</g>
<g>
</g>
<g>
</g>
<g>
</g>
<g>
</g>
<g>
</g>
<g>
</g>
<g>
</g>
<g>
</g>
<g>
</g>
</svg>
