<svg height="512" viewBox="0 0 60 60" width="512" xmlns="http://www.w3.org/2000/svg"><g id="Page-1" fill="none" fill-rule="evenodd"><g id="046---Important-Message" fill-rule="nonzero"><g id="Icons" transform="translate(1 1)"><path id="Shape" d="m47 3v23.8c-4.2040139-1.3811644-8.7921585-.9610888-12.6754693 1.1605249-3.8833108 2.1216138-6.7155593 5.7556065-7.8245307 10.0394751h-4.08l-13.72 8.82c-.33788826.2198957-.7689952.2373412-1.12354651.0454664-.35455131-.1918749-.57573762-.5623261-.57645349-.9654664v-7.9h-4c-1.65685425 0-3-1.3431458-3-3v-32c0-1.65685425 1.34314575-3 3-3h41c1.6568542 0 3 1.34314575 3 3z" fill="#ffdc00"/><path id="Shape" d="m44 0h-3c1.6568542 0 3 1.34314575 3 3v23.136c1.0191718.1234926 2.0239071.345874 3 .664v-23.8c0-1.65685425-1.3431458-3-3-3z" fill="#fec108"/><path id="Shape" d="m58 42c-.0005705 6.9369011-4.4711315 13.0832472-11.0706093 15.2204156-6.5994778 2.1371685-13.8243701-.2217335-17.8912578-5.8414329-4.0668877-5.6196993-4.0492467-13.2199082.043685-18.8206677s11.3286966-7.9260966 17.9181821-5.758315c6.5644108 2.1595326 11.0005683 8.2894957 11 15.2z" fill="#02a9f4"/><path id="Shape" d="m47 26.8c-1.6131085-.5325509-3.3012586-.802655-5-.8-.509 0-1.012.029-1.509.075 1.1933446.1080246 2.3705572.3512503 3.509.725 7.1914215 2.3710225 11.7360213 9.4586162 10.8898346 16.9833925-.8461868 7.5247763-6.8514241 13.4260049-14.3898346 14.1406075.494.046.994.076 1.5.076 7.8607374.0019667 14.5585584-5.7065007 15.8024208-13.4682018 1.2438623-7.7617011-3.3347198-15.2772844-10.8024208-17.7317982z" fill="#0377bc"/><path id="Shape" d="m30.686 39c-.324835.0001387-.629498-.1575111-.8170045-.4227641-.1875064-.265253-.2344904-.6050551-.1259955-.9112359 1.0375656-2.9166935 3.0779988-5.3696792 5.757-6.921.4759933-.2561528 1.0693836-.0876904 1.3397768.3803603s.1199053 1.0662521-.3397768 1.3506397c-2.2680581 1.3127513-3.9955787 3.3890368-4.874 5.858-.1411404.3983133-.5174211.6649122-.94.666z" fill="#f5f5f5"/><circle id="Oval" cx="42" cy="51" fill="#e91e63" r="2"/><rect id="Rectangle-path" fill="#e91e63" height="14" rx="2" width="4" x="40" y="31"/><circle id="Oval" cx="30" cy="42" fill="#f5f5f5" r="1"/></g><g id="Icons_copy" fill="#000"><path id="Shape" d="m49 27.11v-23.11c0-2.209139-1.790861-4-4-4h-41c-2.209139 0-4 1.790861-4 4v32c0 2.209139 1.790861 4 4 4h3v6.9c.00328438.7628219.41557326 1.46524 1.08 1.84.67950306.3743663 1.51005145.3436053 2.16-.08l13.47-8.66h2.57c-.179743.9900445-.2734262 1.993793-.28 3-.0080815 8.6022013 6.4108521 15.8547852 14.9503027 16.891953s16.507888-4.4679831 18.5592435-12.8220165-2.460933-16.9238603-10.5095462-19.9599365zm-32 10.89c-.5522847 0-1 .4477153-1 1s.4477153 1 1 1h3.02l-10.86 6.98c-.01.01-.06.03-.16-.08v-6.9h4c.5522847 0 1-.4477153 1-1s-.4477153-1-1-1h-9c-1.10320187-.0032948-1.9967052-.8967981-2-2v-32c.0032948-1.10320187.89679813-1.9967052 2-2h41c1.1032019.0032948 1.9967052.89679813 2 2v22.49c-8.735325-2.148148-17.6264225 2.9055079-20.25 11.51zm26 20c-8.2842712 0-15-6.7157288-15-15s6.7157288-15 15-15 15 6.7157288 15 15c-.0099183 8.2801595-6.7198405 14.9900817-15 15z"/><path id="Shape" d="m6 8h37c.5522847 0 1-.44771525 1-1s-.4477153-1-1-1h-37c-.55228475 0-1 .44771525-1 1s.44771525 1 1 1z"/><path id="Shape" d="m43 11h-31c-.5522847 0-1 .4477153-1 1s.4477153 1 1 1h31c.5522847 0 1-.4477153 1-1s-.4477153-1-1-1z"/><path id="Shape" d="m6 13h2c.55228475 0 1-.4477153 1-1s-.44771525-1-1-1h-2c-.55228475 0-1 .4477153-1 1s.44771525 1 1 1z"/><path id="Shape" d="m43 16h-4c-.5522847 0-1 .4477153-1 1s.4477153 1 1 1h4c.5522847 0 1-.4477153 1-1s-.4477153-1-1-1z"/><path id="Shape" d="m6 18h29c.5522847 0 1-.4477153 1-1s-.4477153-1-1-1h-29c-.55228475 0-1 .4477153-1 1s.44771525 1 1 1z"/><path id="Shape" d="m43 21h-26c-.5522847 0-1 .4477153-1 1s.4477153 1 1 1h26c.5522847 0 1-.4477153 1-1s-.4477153-1-1-1z"/><path id="Shape" d="m6 23h7c.5522847 0 1-.4477153 1-1s-.4477153-1-1-1h-7c-.55228475 0-1 .4477153-1 1s.44771525 1 1 1z"/><path id="Shape" d="m30 26h-5c-.5522847 0-1 .4477153-1 1s.4477153 1 1 1h5c.5522847 0 1-.4477153 1-1s-.4477153-1-1-1z"/><path id="Shape" d="m6 28h14c.5522847 0 1-.4477153 1-1s-.4477153-1-1-1h-14c-.55228475 0-1 .4477153-1 1s.44771525 1 1 1z"/><path id="Shape" d="m23 31h-17c-.55228475 0-1 .4477153-1 1s.44771525 1 1 1h17c.5522847 0 1-.4477153 1-1s-.4477153-1-1-1z"/><path id="Shape" d="m43 49c-1.6568542 0-3 1.3431458-3 3s1.3431458 3 3 3 3-1.3431458 3-3c-.0049422-1.6548028-1.3451972-2.9950578-3-3zm0 4c-.5522847 0-1-.4477153-1-1s.4477153-1 1-1 1 .4477153 1 1-.4477153 1-1 1z"/><path id="Shape" d="m43 31c-1.6548028.0049422-2.9950578 1.3451972-3 3v10c0 1.6568542 1.3431458 3 3 3s3-1.3431458 3-3v-10c-.0049422-1.6548028-1.3451972-2.9950578-3-3zm1 13c0 .5522847-.4477153 1-1 1s-1-.4477153-1-1v-10c0-.5522847.4477153-1 1-1s1 .4477153 1 1z"/></g></g></g></svg>